<svg xmlns="http://www.w3.org/2000/svg" xmlns:xlink="http://www.w3.org/1999/xlink" width="1920" zoomAndPan="magnify" viewBox="0 0 1440 809.999993" height="1080" preserveAspectRatio="xMidYMid meet" version="1.0"><defs><clipPath id="843114eaca"><path d="M 6 299 L 1434 299 L 1434 511.214844 L 6 511.214844 Z M 6 299 " clip-rule="nonzero"/></clipPath></defs><path fill="#05f8dd" d="M 1016.628906 405.089844 L 1002.332031 420.941406 L 854.230469 420.941406 L 789.097656 486.160156 L 1040.777344 486.160156 L 1121.75 405.089844 Z M 1016.628906 405.089844 " fill-opacity="1" fill-rule="nonzero"/><path fill="#05f8dd" d="M 1133.335938 405.261719 L 1052.476562 486.1875 L 1110.019531 486.273438 L 1191.105469 405.375 Z M 1133.335938 405.261719 " fill-opacity="1" fill-rule="nonzero"/><path fill="#05f8dd" d="M 1121.804688 486.1875 L 1179.316406 486.273438 L 1260.429688 405.375 L 1202.664062 405.261719 Z M 1121.804688 486.1875 " fill-opacity="1" fill-rule="nonzero"/><g clip-path="url(#843114eaca)"><path fill="#05f8dd" d="M 1421.660156 299.050781 C 1416.179688 299.050781 1411.585938 302.761719 1410.214844 307.820312 L 1192.960938 307.820312 L 1137.558594 363.265625 L 1039.40625 363.265625 L 1013.949219 388.75 L 867.585938 388.75 L 848.292969 408.058594 L 683.410156 408.058594 L 609.542969 481.988281 L 88.949219 481.988281 L 88.949219 487.933594 L 603.636719 487.933594 L 586.113281 505.472656 L 6.464844 505.472656 L 6.464844 511.414062 L 588.566406 511.414062 L 612.027344 487.933594 L 776.882812 487.933594 L 850.746094 414 L 997.109375 414 L 1016.402344 394.691406 L 1114.554688 394.691406 L 1140.015625 369.207031 L 1311.09375 369.207031 C 1312.347656 374.4375 1317.027344 378.320312 1322.621094 378.320312 C 1329.1875 378.320312 1334.496094 373.007812 1334.496094 366.4375 C 1334.496094 359.867188 1329.1875 354.554688 1322.621094 354.554688 C 1317.144531 354.554688 1312.578125 358.238281 1311.175781 363.296875 L 1145.953125 363.296875 L 1195.414062 313.789062 L 1410.128906 313.789062 C 1411.386719 318.988281 1416.066406 322.84375 1421.660156 322.84375 C 1428.226562 322.84375 1433.535156 317.53125 1433.535156 310.960938 C 1433.535156 304.390625 1428.226562 299.050781 1421.660156 299.050781 Z M 774.429688 481.988281 L 617.964844 481.988281 L 685.894531 414 L 842.355469 414 Z M 994.652344 408.058594 L 856.714844 408.058594 L 870.070312 394.691406 L 1008.011719 394.691406 Z M 1112.101562 388.75 L 1022.339844 388.75 L 1041.859375 369.207031 L 1131.625 369.207031 Z M 1112.101562 388.75 " fill-opacity="1" fill-rule="nonzero"/></g></svg>