<svg xmlns="http://www.w3.org/2000/svg" xmlns:xlink="http://www.w3.org/1999/xlink" width="1920" zoomAndPan="magnify" viewBox="0 0 1440 809.999993" height="1080" preserveAspectRatio="xMidYMid meet" version="1.0"><path fill="#ffc300" d="M 1440 363.359375 L 1436.53125 361.625 L 1346.3125 451.832031 L 1190.167969 451.832031 L 1209.253906 436.21875 L 1162.410156 436.21875 L 1143.324219 451.832031 L 1131.179688 451.832031 L 1150.265625 436.21875 L 1101.6875 436.21875 L 1084.335938 451.832031 L 1072.191406 451.832031 L 1091.277344 436.21875 L 1042.699219 436.21875 L 1023.613281 451.832031 L 865.734375 451.832031 L 773.78125 358.152344 L 362.601562 358.152344 L 386.890625 339.070312 L 326.167969 339.070312 L 303.613281 358.152344 L 282.796875 358.152344 L 307.085938 339.070312 L 65.925781 339.070312 L 41.636719 358.152344 L 0 358.152344 L 0 363.359375 L 36.433594 363.359375 L 12.144531 384.175781 L 253.300781 384.175781 L 277.589844 363.359375 L 296.675781 363.359375 L 272.386719 384.175781 L 333.109375 384.175781 L 357.398438 363.359375 L 772.046875 363.359375 L 864 455.300781 L 1018.410156 455.300781 L 999.324219 470.914062 L 1047.902344 470.914062 L 1066.988281 455.300781 L 1079.132812 455.300781 L 1060.046875 470.914062 L 1106.890625 470.914062 L 1125.976562 455.300781 L 1138.121094 455.300781 L 1119.035156 470.914062 L 1167.613281 470.914062 L 1184.964844 455.300781 L 1349.78125 455.300781 Z M 1440 363.359375 " fill-opacity="1" fill-rule="nonzero"/></svg>