<svg xmlns="http://www.w3.org/2000/svg" xmlns:xlink="http://www.w3.org/1999/xlink" width="1920" zoomAndPan="magnify" viewBox="0 0 1440 809.999993" height="1080" preserveAspectRatio="xMidYMid meet" version="1.0"><defs><clipPath id="3c300c53b3"><path d="M 0 8.34375 L 1440 8.34375 L 1440 801.84375 L 0 801.84375 Z M 0 8.34375 " clip-rule="nonzero"/></clipPath></defs><path fill="#000000" d="M 10.945312 87.238281 L 10.945312 79.832031 L 16.1875 74.617188 L 44.726562 46.070312 L 44.726562 28.09375 L 32.199219 40.625 L 6.105469 66.726562 L 0 72.832031 L 0 163.402344 L 10.945312 152.457031 Z M 10.945312 87.238281 " fill-opacity="1" fill-rule="nonzero"/><path fill="#000000" d="M 9.390625 339.125 L 20.878906 350.59375 L 22.925781 352.636719 L 22.953125 352.695312 L 22.953125 332.070312 L 20.878906 329.996094 L 9.390625 318.5 Z M 9.390625 339.125 " fill-opacity="1" fill-rule="nonzero"/><path fill="#000000" d="M 22.925781 317.261719 L 22.953125 317.320312 L 22.953125 296.695312 L 22.925781 296.636719 L 20.878906 294.589844 L 9.390625 283.125 L 9.390625 303.75 L 20.878906 315.21875 Z M 22.925781 317.261719 " fill-opacity="1" fill-rule="nonzero"/><path fill="#000000" d="M 513.90625 22.996094 L 519.121094 22.996094 L 519.121094 37.601562 L 513.90625 37.601562 Z M 513.90625 22.996094 " fill-opacity="1" fill-rule="nonzero"/><path fill="#000000" d="M 524.363281 22.996094 L 529.574219 22.996094 L 529.574219 37.601562 L 524.363281 37.601562 Z M 524.363281 22.996094 " fill-opacity="1" fill-rule="nonzero"/><path fill="#000000" d="M 503.480469 22.996094 L 508.695312 22.996094 L 508.695312 37.601562 L 503.480469 37.601562 Z M 503.480469 22.996094 " fill-opacity="1" fill-rule="nonzero"/><path fill="#000000" d="M 545.210938 22.996094 L 550.425781 22.996094 L 550.425781 37.601562 L 545.210938 37.601562 Z M 545.210938 22.996094 " fill-opacity="1" fill-rule="nonzero"/><path fill="#000000" d="M 534.789062 22.996094 L 540 22.996094 L 540 37.601562 L 534.789062 37.601562 Z M 534.789062 22.996094 " fill-opacity="1" fill-rule="nonzero"/><path fill="#000000" d="M 555.636719 22.996094 L 560.851562 22.996094 L 560.851562 37.601562 L 555.636719 37.601562 Z M 555.636719 22.996094 " fill-opacity="1" fill-rule="nonzero"/><path fill="#000000" d="M 493.054688 22.996094 L 498.269531 22.996094 L 498.269531 37.601562 L 493.054688 37.601562 Z M 493.054688 22.996094 " fill-opacity="1" fill-rule="nonzero"/><path fill="#000000" d="M 482.601562 22.996094 L 487.8125 22.996094 L 487.8125 37.601562 L 482.601562 37.601562 Z M 482.601562 22.996094 " fill-opacity="1" fill-rule="nonzero"/><path fill="#000000" d="M 440.871094 22.996094 L 446.082031 22.996094 L 446.082031 37.601562 L 440.871094 37.601562 Z M 440.871094 22.996094 " fill-opacity="1" fill-rule="nonzero"/><path fill="#000000" d="M 419.992188 22.996094 L 425.203125 22.996094 L 425.203125 37.601562 L 419.992188 37.601562 Z M 419.992188 22.996094 " fill-opacity="1" fill-rule="nonzero"/><path fill="#000000" d="M 430.445312 22.996094 L 435.65625 22.996094 L 435.65625 37.601562 L 430.445312 37.601562 Z M 430.445312 22.996094 " fill-opacity="1" fill-rule="nonzero"/><path fill="#000000" d="M 472.175781 22.996094 L 477.390625 22.996094 L 477.390625 37.601562 L 472.175781 37.601562 Z M 472.175781 22.996094 " fill-opacity="1" fill-rule="nonzero"/><path fill="#000000" d="M 451.296875 22.996094 L 456.507812 22.996094 L 456.507812 37.601562 L 451.296875 37.601562 Z M 451.296875 22.996094 " fill-opacity="1" fill-rule="nonzero"/><path fill="#000000" d="M 566.09375 22.996094 L 571.304688 22.996094 L 571.304688 37.601562 L 566.09375 37.601562 Z M 566.09375 22.996094 " fill-opacity="1" fill-rule="nonzero"/><path fill="#000000" d="M 461.75 22.996094 L 466.964844 22.996094 L 466.964844 37.601562 L 461.75 37.601562 Z M 461.75 22.996094 " fill-opacity="1" fill-rule="nonzero"/><path fill="#000000" d="M 691.316406 22.996094 L 696.527344 22.996094 L 696.527344 37.601562 L 691.316406 37.601562 Z M 691.316406 22.996094 " fill-opacity="1" fill-rule="nonzero"/><path fill="#000000" d="M 680.859375 22.996094 L 686.074219 22.996094 L 686.074219 37.601562 L 680.859375 37.601562 Z M 680.859375 22.996094 " fill-opacity="1" fill-rule="nonzero"/><path fill="#000000" d="M 660.007812 22.996094 L 665.222656 22.996094 L 665.222656 37.601562 L 660.007812 37.601562 Z M 660.007812 22.996094 " fill-opacity="1" fill-rule="nonzero"/><path fill="#000000" d="M 670.433594 22.996094 L 675.648438 22.996094 L 675.648438 37.601562 L 670.433594 37.601562 Z M 670.433594 22.996094 " fill-opacity="1" fill-rule="nonzero"/><path fill="#000000" d="M 409.566406 23.167969 L 409.566406 37.457031 L 409.707031 37.601562 L 414.777344 37.601562 L 414.777344 22.996094 L 409.707031 22.996094 Z M 409.566406 23.167969 " fill-opacity="1" fill-rule="nonzero"/><path fill="#000000" d="M 712.167969 22.996094 L 717.378906 22.996094 L 717.378906 37.601562 L 712.167969 37.601562 Z M 712.167969 22.996094 " fill-opacity="1" fill-rule="nonzero"/><path fill="#000000" d="M 701.742188 22.996094 L 706.953125 22.996094 L 706.953125 37.601562 L 701.742188 37.601562 Z M 701.742188 22.996094 " fill-opacity="1" fill-rule="nonzero"/><path fill="#000000" d="M 618.25 22.996094 L 623.460938 22.996094 L 623.460938 37.601562 L 618.25 37.601562 Z M 618.25 22.996094 " fill-opacity="1" fill-rule="nonzero"/><path fill="#000000" d="M 597.398438 22.996094 L 602.609375 22.996094 L 602.609375 37.601562 L 597.398438 37.601562 Z M 597.398438 22.996094 " fill-opacity="1" fill-rule="nonzero"/><path fill="#000000" d="M 607.824219 22.996094 L 613.035156 22.996094 L 613.035156 37.601562 L 607.824219 37.601562 Z M 607.824219 22.996094 " fill-opacity="1" fill-rule="nonzero"/><path fill="#000000" d="M 586.945312 22.996094 L 592.15625 22.996094 L 592.15625 37.601562 L 586.945312 37.601562 Z M 586.945312 22.996094 " fill-opacity="1" fill-rule="nonzero"/><path fill="#000000" d="M 649.554688 22.996094 L 654.769531 22.996094 L 654.769531 37.601562 L 649.554688 37.601562 Z M 649.554688 22.996094 " fill-opacity="1" fill-rule="nonzero"/><path fill="#000000" d="M 639.128906 22.996094 L 644.34375 22.996094 L 644.34375 37.601562 L 639.128906 37.601562 Z M 639.128906 22.996094 " fill-opacity="1" fill-rule="nonzero"/><path fill="#000000" d="M 576.519531 22.996094 L 581.730469 22.996094 L 581.730469 37.601562 L 576.519531 37.601562 Z M 576.519531 22.996094 " fill-opacity="1" fill-rule="nonzero"/><path fill="#000000" d="M 628.703125 22.996094 L 633.917969 22.996094 L 633.917969 37.601562 L 628.703125 37.601562 Z M 628.703125 22.996094 " fill-opacity="1" fill-rule="nonzero"/><path fill="#000000" d="M 10.945312 730.242188 L 10.945312 657.621094 L 0 646.671875 L 0 737.242188 L 6.105469 743.351562 L 32.199219 769.449219 L 44.726562 781.980469 L 44.726562 764.003906 L 16.1875 735.457031 Z M 10.945312 730.242188 " fill-opacity="1" fill-rule="nonzero"/><path fill="#000000" d="M 20.878906 459.484375 L 9.390625 470.949219 L 9.390625 491.574219 L 20.878906 480.109375 L 22.953125 478.007812 L 22.953125 457.378906 L 22.925781 457.4375 Z M 20.878906 459.484375 " fill-opacity="1" fill-rule="nonzero"/><path fill="#000000" d="M 9.390625 526.949219 L 20.878906 515.484375 L 22.925781 513.441406 L 22.953125 513.382812 L 22.953125 492.757812 L 22.925781 492.8125 L 20.878906 494.859375 L 9.390625 506.324219 Z M 9.390625 526.949219 " fill-opacity="1" fill-rule="nonzero"/><path fill="#000000" d="M 411.867188 777.6875 L 409.796875 779.761719 L 411.867188 781.867188 L 697.738281 781.867188 L 695.664062 779.761719 L 697.738281 777.6875 Z M 411.867188 777.6875 " fill-opacity="1" fill-rule="nonzero"/><path fill="#000000" d="M 720 770.167969 L 710.410156 779.761719 L 720 789.355469 L 729.589844 779.761719 Z M 714.84375 779.761719 L 720 774.691406 L 725.15625 779.847656 L 720 784.949219 Z M 714.84375 779.761719 " fill-opacity="1" fill-rule="nonzero"/><g clip-path="url(#3c300c53b3)"><path fill="#000000" d="M 1430.609375 541.699219 L 1419.089844 530.175781 L 1417.046875 528.132812 L 1417.046875 555.269531 L 1408.695312 563.621094 L 1408.695312 724.28125 L 1362.613281 770.371094 L 1202.027344 770.371094 L 1193.671875 778.726562 L 1079.367188 778.726562 L 1063.035156 762.390625 L 376.964844 762.390625 L 360.632812 778.726562 L 246.328125 778.726562 L 237.972656 770.371094 L 77.355469 770.371094 L 31.277344 724.28125 L 31.277344 563.621094 L 23.039062 555.269531 L 23.039062 528.132812 L 20.996094 530.175781 L 9.476562 541.699219 L 9.476562 585.167969 L 0 594.589844 L 0 639.296875 L 16.1875 655.488281 L 16.1875 728.109375 L 49.9375 761.875 L 49.9375 787.222656 L 64.339844 801.628906 L 138.46875 801.628906 L 159.351562 780.742188 L 166.753906 780.742188 L 145.871094 801.628906 L 162.488281 801.628906 L 183.371094 780.742188 L 190.769531 780.742188 L 169.921875 801.65625 L 186.539062 801.65625 L 207.359375 780.800781 L 214.761719 780.800781 L 193.882812 801.683594 L 210.097656 801.683594 L 230.976562 780.800781 L 360.574219 780.800781 L 376.964844 797.191406 L 1063.035156 797.191406 L 1079.425781 780.800781 L 1209.023438 780.800781 L 1229.902344 801.683594 L 1246.117188 801.683594 L 1225.238281 780.800781 L 1232.640625 780.800781 L 1253.519531 801.683594 L 1270.078125 801.683594 L 1249.199219 780.800781 L 1256.601562 780.800781 L 1277.480469 801.683594 L 1294.097656 801.683594 L 1273.21875 780.800781 L 1280.621094 780.800781 L 1301.5 801.683594 L 1375.574219 801.683594 L 1389.972656 787.28125 L 1389.972656 761.929688 L 1423.726562 728.167969 L 1423.726562 655.460938 L 1440 639.296875 L 1440 594.589844 L 1430.609375 585.199219 Z M 1043.941406 780.800781 L 1032.421875 792.324219 L 407.460938 792.324219 L 395.941406 780.800781 L 394.933594 779.792969 L 407.460938 767.261719 L 1032.421875 767.261719 L 1044.949219 779.792969 Z M 1423.8125 154.617188 L 1423.8125 81.992188 L 1390.0625 48.230469 L 1390.0625 22.824219 L 1375.660156 8.417969 L 1301.53125 8.417969 L 1280.648438 29.304688 L 1273.246094 29.304688 L 1294.128906 8.417969 L 1277.511719 8.417969 L 1256.628906 29.304688 L 1249.230469 29.304688 L 1270.078125 8.417969 L 1253.460938 8.417969 L 1232.640625 29.304688 L 1225.238281 29.304688 L 1246.117188 8.417969 L 1229.902344 8.417969 L 1209.023438 29.304688 L 1079.425781 29.304688 L 1063.035156 12.914062 L 376.964844 12.914062 L 360.574219 29.304688 L 230.976562 29.304688 L 210.097656 8.417969 L 193.882812 8.417969 L 214.761719 29.304688 L 207.359375 29.304688 L 186.480469 8.417969 L 169.921875 8.417969 L 190.800781 29.304688 L 183.339844 29.304688 L 162.488281 8.417969 L 145.871094 8.417969 L 166.753906 29.304688 L 159.351562 29.304688 L 138.46875 8.417969 L 64.398438 8.417969 L 49.996094 22.824219 L 49.996094 48.175781 L 16.1875 81.992188 L 16.1875 154.617188 L 0 170.804688 L 0 215.484375 L 9.390625 224.878906 L 9.390625 268.375 L 20.910156 279.898438 L 22.953125 281.945312 L 23.039062 281.945312 L 23.039062 254.808594 L 31.390625 246.453125 L 31.390625 85.796875 L 77.472656 39.703125 L 237.972656 39.703125 L 246.328125 31.464844 L 360.632812 31.464844 L 376.964844 47.800781 L 1063.035156 47.800781 L 1079.367188 31.464844 L 1193.671875 31.464844 L 1202.027344 39.820312 L 1362.644531 39.820312 L 1408.722656 85.910156 L 1408.722656 246.453125 L 1417.074219 254.808594 L 1417.074219 281.945312 L 1419.121094 279.898438 L 1430.640625 268.375 L 1430.640625 224.878906 L 1440 215.484375 L 1440 170.804688 Z M 1043.882812 31.464844 L 1032.363281 42.988281 L 407.40625 42.988281 L 395.882812 31.464844 L 394.820312 30.398438 L 407.347656 17.867188 L 1032.308594 17.867188 L 1044.835938 30.398438 Z M 1423.84375 385.421875 L 1425.886719 383.375 L 1430.609375 378.652344 L 1430.609375 353.90625 L 1419.089844 365.429688 L 1417.019531 367.503906 L 1417.019531 442.6875 L 1419.0625 444.734375 L 1430.582031 456.257812 L 1430.582031 431.511719 L 1423.8125 424.742188 Z M 16.15625 424.683594 L 9.390625 431.453125 L 9.390625 456.199219 L 20.910156 444.675781 L 22.953125 442.632812 L 23.039062 442.632812 L 23.039062 367.445312 L 20.964844 365.371094 L 9.445312 353.847656 L 9.445312 378.59375 L 16.214844 385.363281 Z M 16.15625 424.683594 " fill-opacity="1" fill-rule="nonzero"/></g><path fill="#000000" d="M 1433.894531 66.726562 L 1407.800781 40.625 L 1395.273438 28.09375 L 1395.273438 46.070312 L 1423.8125 74.617188 L 1429.054688 79.832031 L 1429.054688 152.457031 L 1440 163.402344 L 1440 72.832031 Z M 1433.894531 66.726562 " fill-opacity="1" fill-rule="nonzero"/><path fill="#000000" d="M 1419.121094 350.59375 L 1430.609375 339.125 L 1430.609375 318.5 L 1419.121094 329.996094 L 1417.046875 332.070312 L 1417.046875 352.695312 L 1417.074219 352.636719 Z M 1419.121094 350.59375 " fill-opacity="1" fill-rule="nonzero"/><path fill="#000000" d="M 1430.609375 283.125 L 1419.121094 294.589844 L 1417.074219 296.636719 L 1417.046875 296.695312 L 1417.046875 317.320312 L 1417.074219 317.261719 L 1419.121094 315.21875 L 1430.609375 303.75 Z M 1430.609375 283.125 " fill-opacity="1" fill-rule="nonzero"/><path fill="#000000" d="M 920.878906 22.996094 L 926.09375 22.996094 L 926.09375 37.601562 L 920.878906 37.601562 Z M 920.878906 22.996094 " fill-opacity="1" fill-rule="nonzero"/><path fill="#000000" d="M 910.425781 22.996094 L 915.636719 22.996094 L 915.636719 37.601562 L 910.425781 37.601562 Z M 910.425781 22.996094 " fill-opacity="1" fill-rule="nonzero"/><path fill="#000000" d="M 931.304688 22.996094 L 936.519531 22.996094 L 936.519531 37.601562 L 931.304688 37.601562 Z M 931.304688 22.996094 " fill-opacity="1" fill-rule="nonzero"/><path fill="#000000" d="M 889.574219 22.996094 L 894.789062 22.996094 L 894.789062 37.601562 L 889.574219 37.601562 Z M 889.574219 22.996094 " fill-opacity="1" fill-rule="nonzero"/><path fill="#000000" d="M 900 22.996094 L 905.210938 22.996094 L 905.210938 37.601562 L 900 37.601562 Z M 900 22.996094 " fill-opacity="1" fill-rule="nonzero"/><path fill="#000000" d="M 879.121094 22.996094 L 884.332031 22.996094 L 884.332031 37.601562 L 879.121094 37.601562 Z M 879.121094 22.996094 " fill-opacity="1" fill-rule="nonzero"/><path fill="#000000" d="M 941.730469 22.996094 L 946.945312 22.996094 L 946.945312 37.601562 L 941.730469 37.601562 Z M 941.730469 22.996094 " fill-opacity="1" fill-rule="nonzero"/><path fill="#000000" d="M 952.1875 22.996094 L 957.398438 22.996094 L 957.398438 37.601562 L 952.1875 37.601562 Z M 952.1875 22.996094 " fill-opacity="1" fill-rule="nonzero"/><path fill="#000000" d="M 993.917969 22.996094 L 999.128906 22.996094 L 999.128906 37.601562 L 993.917969 37.601562 Z M 993.917969 22.996094 " fill-opacity="1" fill-rule="nonzero"/><path fill="#000000" d="M 1014.796875 22.996094 L 1020.007812 22.996094 L 1020.007812 37.601562 L 1014.796875 37.601562 Z M 1014.796875 22.996094 " fill-opacity="1" fill-rule="nonzero"/><path fill="#000000" d="M 1004.34375 22.996094 L 1009.554688 22.996094 L 1009.554688 37.601562 L 1004.34375 37.601562 Z M 1004.34375 22.996094 " fill-opacity="1" fill-rule="nonzero"/><path fill="#000000" d="M 962.609375 22.996094 L 967.824219 22.996094 L 967.824219 37.601562 L 962.609375 37.601562 Z M 962.609375 22.996094 " fill-opacity="1" fill-rule="nonzero"/><path fill="#000000" d="M 983.492188 22.996094 L 988.703125 22.996094 L 988.703125 37.601562 L 983.492188 37.601562 Z M 983.492188 22.996094 " fill-opacity="1" fill-rule="nonzero"/><path fill="#000000" d="M 868.695312 22.996094 L 873.90625 22.996094 L 873.90625 37.601562 L 868.695312 37.601562 Z M 868.695312 22.996094 " fill-opacity="1" fill-rule="nonzero"/><path fill="#000000" d="M 973.035156 22.996094 L 978.25 22.996094 L 978.25 37.601562 L 973.035156 37.601562 Z M 973.035156 22.996094 " fill-opacity="1" fill-rule="nonzero"/><path fill="#000000" d="M 743.472656 22.996094 L 748.683594 22.996094 L 748.683594 37.601562 L 743.472656 37.601562 Z M 743.472656 22.996094 " fill-opacity="1" fill-rule="nonzero"/><path fill="#000000" d="M 753.925781 22.996094 L 759.140625 22.996094 L 759.140625 37.601562 L 753.925781 37.601562 Z M 753.925781 22.996094 " fill-opacity="1" fill-rule="nonzero"/><path fill="#000000" d="M 774.777344 22.996094 L 779.992188 22.996094 L 779.992188 37.601562 L 774.777344 37.601562 Z M 774.777344 22.996094 " fill-opacity="1" fill-rule="nonzero"/><path fill="#000000" d="M 764.351562 22.996094 L 769.566406 22.996094 L 769.566406 37.601562 L 764.351562 37.601562 Z M 764.351562 22.996094 " fill-opacity="1" fill-rule="nonzero"/><path fill="#000000" d="M 1025.222656 22.996094 L 1025.222656 37.601562 L 1030.292969 37.601562 L 1030.433594 37.457031 L 1030.433594 23.167969 L 1030.292969 22.996094 Z M 1025.222656 22.996094 " fill-opacity="1" fill-rule="nonzero"/><path fill="#000000" d="M 722.621094 22.996094 L 727.832031 22.996094 L 727.832031 37.601562 L 722.621094 37.601562 Z M 722.621094 22.996094 " fill-opacity="1" fill-rule="nonzero"/><path fill="#000000" d="M 733.046875 22.996094 L 738.257812 22.996094 L 738.257812 37.601562 L 733.046875 37.601562 Z M 733.046875 22.996094 " fill-opacity="1" fill-rule="nonzero"/><path fill="#000000" d="M 816.507812 22.996094 L 821.722656 22.996094 L 821.722656 37.601562 L 816.507812 37.601562 Z M 816.507812 22.996094 " fill-opacity="1" fill-rule="nonzero"/><path fill="#000000" d="M 837.390625 22.996094 L 842.601562 22.996094 L 842.601562 37.601562 L 837.390625 37.601562 Z M 837.390625 22.996094 " fill-opacity="1" fill-rule="nonzero"/><path fill="#000000" d="M 826.964844 22.996094 L 832.175781 22.996094 L 832.175781 37.601562 L 826.964844 37.601562 Z M 826.964844 22.996094 " fill-opacity="1" fill-rule="nonzero"/><path fill="#000000" d="M 847.8125 22.996094 L 853.027344 22.996094 L 853.027344 37.601562 L 847.8125 37.601562 Z M 847.8125 22.996094 " fill-opacity="1" fill-rule="nonzero"/><path fill="#000000" d="M 785.203125 22.996094 L 790.414062 22.996094 L 790.414062 37.601562 L 785.203125 37.601562 Z M 785.203125 22.996094 " fill-opacity="1" fill-rule="nonzero"/><path fill="#000000" d="M 795.65625 22.996094 L 800.871094 22.996094 L 800.871094 37.601562 L 795.65625 37.601562 Z M 795.65625 22.996094 " fill-opacity="1" fill-rule="nonzero"/><path fill="#000000" d="M 858.269531 22.996094 L 863.480469 22.996094 L 863.480469 37.601562 L 858.269531 37.601562 Z M 858.269531 22.996094 " fill-opacity="1" fill-rule="nonzero"/><path fill="#000000" d="M 806.082031 22.996094 L 811.296875 22.996094 L 811.296875 37.601562 L 806.082031 37.601562 Z M 806.082031 22.996094 " fill-opacity="1" fill-rule="nonzero"/><path fill="#000000" d="M 1429.054688 722.867188 L 1429.054688 730.242188 L 1423.8125 735.457031 L 1395.273438 764.003906 L 1395.273438 781.980469 L 1407.800781 769.449219 L 1433.894531 743.351562 L 1440 737.242188 L 1440 646.671875 L 1429.054688 657.621094 Z M 1429.054688 722.867188 " fill-opacity="1" fill-rule="nonzero"/><path fill="#000000" d="M 1430.609375 470.949219 L 1419.121094 459.484375 L 1417.074219 457.4375 L 1417.046875 457.378906 L 1417.046875 478.007812 L 1419.121094 480.109375 L 1430.609375 491.574219 Z M 1430.609375 470.949219 " fill-opacity="1" fill-rule="nonzero"/><path fill="#000000" d="M 1417.074219 492.8125 L 1417.046875 492.757812 L 1417.046875 513.382812 L 1417.074219 513.441406 L 1419.121094 515.484375 L 1430.609375 526.949219 L 1430.609375 506.324219 L 1419.121094 494.859375 Z M 1417.074219 492.8125 " fill-opacity="1" fill-rule="nonzero"/><path fill="#000000" d="M 1028.132812 781.867188 L 1030.203125 779.761719 L 1028.132812 777.6875 L 742.261719 777.6875 L 744.335938 779.761719 L 742.261719 781.867188 Z M 1028.132812 781.867188 " fill-opacity="1" fill-rule="nonzero"/></svg>