<svg xmlns="http://www.w3.org/2000/svg" xmlns:xlink="http://www.w3.org/1999/xlink" width="1920" zoomAndPan="magnify" viewBox="0 0 1440 809.999993" height="1080" preserveAspectRatio="xMidYMid meet" version="1.0"><defs><clipPath id="b5719e89da"><path d="M 317.507812 13 L 698 13 L 698 442 L 317.507812 442 Z M 317.507812 13 " clip-rule="nonzero"/></clipPath><clipPath id="7f5b68454f"><path d="M 799.019531 283 L 1122.257812 283 L 1122.257812 805.410156 L 799.019531 805.410156 Z M 799.019531 283 " clip-rule="nonzero"/></clipPath><clipPath id="83259dc871"><path d="M 481 4.523438 L 797 4.523438 L 797 89 L 481 89 Z M 481 4.523438 " clip-rule="nonzero"/></clipPath></defs><path fill="#01faff" d="M 506.582031 194.058594 C 524.753906 176.160156 545.125 160.496094 567.304688 147.570312 C 565.917969 145.480469 564.597656 143.339844 563.28125 141.203125 C 540.636719 154.429688 519.832031 170.449219 501.253906 188.734375 L 506.582031 194.058594 " fill-opacity="1" fill-rule="nonzero"/><path fill="#01faff" d="M 482.023438 209.445312 C 462.761719 232.140625 446.660156 257.578125 434.449219 285.148438 C 436.691406 286.273438 438.9375 287.386719 441.230469 288.433594 C 453.070312 261.625 468.6875 236.871094 487.359375 214.785156 L 482.023438 209.445312 " fill-opacity="1" fill-rule="nonzero"/><path fill="#01faff" d="M 720.675781 106.214844 C 867.871094 106.214844 990.726562 210.335938 1019.738281 348.945312 C 1022.21875 348.585938 1024.710938 348.171875 1027.1875 347.757812 C 997.601562 205.546875 871.632812 98.683594 720.675781 98.683594 C 686.625 98.683594 653.90625 104.265625 623.230469 114.351562 C 624.070312 116.695312 624.894531 119.058594 625.671875 121.433594 C 655.582031 111.628906 687.484375 106.214844 720.675781 106.214844 " fill-opacity="1" fill-rule="nonzero"/><path fill="#01faff" d="M 471.578125 590.714844 C 471.863281 590.488281 472.167969 590.289062 472.449219 590.0625 C 436.394531 539.886719 415.105469 478.398438 415.105469 411.890625 C 415.105469 391.121094 417.195312 370.832031 421.152344 351.21875 C 418.621094 351.03125 416.082031 350.917969 413.550781 350.910156 C 409.671875 370.644531 407.582031 391.027344 407.582031 411.890625 C 407.582031 480.265625 429.535156 543.472656 466.695312 594.96875 C 468.269531 593.496094 469.898438 592.082031 471.578125 590.714844 " fill-opacity="1" fill-rule="nonzero"/><path fill="#01faff" d="M 943.742188 631.367188 C 984.441406 589.992188 1013.828125 537.445312 1026.589844 478.628906 C 1024.117188 478.121094 1021.679688 477.503906 1019.324219 476.667969 C 1006.90625 534.199219 978.207031 585.582031 938.425781 626.046875 L 943.742188 631.367188 " fill-opacity="1" fill-rule="nonzero"/><path fill="#01faff" d="M 917.765625 645.347656 C 888.054688 670.472656 853.511719 690.058594 815.6875 702.429688 C 816.523438 704.800781 817.324219 707.179688 818.082031 709.574219 C 857.027344 696.824219 892.574219 676.636719 923.121094 650.703125 C 921.332031 648.914062 919.550781 647.132812 917.765625 645.347656 " fill-opacity="1" fill-rule="nonzero"/><path fill="#01faff" d="M 720.667969 725.097656 C 547.742188 725.097656 407.566406 584.875 407.566406 411.890625 C 407.566406 238.914062 547.742188 98.683594 720.667969 98.683594 C 893.585938 98.683594 1033.769531 238.914062 1033.769531 411.890625 C 1033.769531 584.875 893.585938 725.097656 720.667969 725.097656 Z M 720.667969 93.660156 C 544.964844 93.660156 402.535156 236.132812 402.535156 411.890625 C 402.535156 587.652344 544.964844 730.136719 720.667969 730.136719 C 896.367188 730.136719 1038.792969 587.652344 1038.792969 411.890625 C 1038.792969 236.132812 896.367188 93.660156 720.667969 93.660156 " fill-opacity="1" fill-rule="nonzero"/><path fill="#01faff" d="M 615 706.476562 C 669.597656 726.09375 729.601562 730.769531 788.328125 717.699219 C 787.757812 715.246094 787.304688 712.773438 787.070312 710.273438 C 729.65625 723.113281 670.984375 718.589844 617.585938 699.421875 L 615 706.476562 " fill-opacity="1" fill-rule="nonzero"/><path fill="#01faff" d="M 591.417969 688.753906 C 556.15625 672.296875 523.894531 649.136719 496.808594 619.96875 C 495.015625 621.714844 493.179688 623.4375 491.335938 625.136719 C 519.226562 655.15625 552.46875 678.988281 588.796875 695.855469 C 589.671875 693.484375 590.542969 691.121094 591.417969 688.753906 " fill-opacity="1" fill-rule="nonzero"/><path fill="#01faff" d="M 1022.996094 368.40625 C 1027.375 399.195312 1026.96875 430.261719 1022.070312 460.542969 C 1024.5 461.199219 1026.9375 461.835938 1029.386719 462.382812 C 1034.554688 430.875 1034.972656 398.535156 1030.320312 366.492188 C 1027.882812 367.136719 1025.4375 367.773438 1022.996094 368.40625 " fill-opacity="1" fill-rule="nonzero"/><path fill="#01faff" d="M 922.046875 213.800781 C 938.589844 230.628906 953.089844 249.480469 965.054688 270.011719 C 966.984375 268.730469 968.96875 267.503906 970.945312 266.289062 C 958.710938 245.324219 943.886719 226.074219 926.976562 208.878906 L 922.046875 213.800781 " fill-opacity="1" fill-rule="nonzero"/><path fill="#01faff" d="M 907.8125 191.070312 C 886.824219 173.257812 863.292969 158.347656 837.792969 147.039062 C 836.75 149.105469 835.714844 151.195312 834.761719 153.304688 C 859.558594 164.273438 882.449219 178.726562 902.878906 196.007812 L 907.8125 191.070312 " fill-opacity="1" fill-rule="nonzero"/><path fill="#01faff" d="M 1003.300781 411.984375 C 1003.300781 548.230469 907 661.945312 778.769531 688.804688 C 779.113281 691.105469 779.492188 693.40625 779.875 695.695312 C 911.425781 668.316406 1010.273438 551.699219 1010.273438 411.984375 C 1010.273438 380.449219 1005.109375 350.171875 995.777344 321.777344 C 993.597656 322.5625 991.425781 323.316406 989.222656 324.039062 C 998.296875 351.722656 1003.300781 381.246094 1003.300781 411.984375 " fill-opacity="1" fill-rule="nonzero"/><path fill="#01faff" d="M 555.136719 181.40625 C 555.339844 181.664062 555.527344 181.945312 555.738281 182.214844 C 602.152344 148.839844 659.019531 129.128906 720.539062 129.128906 C 739.761719 129.128906 758.535156 131.066406 776.667969 134.71875 C 776.839844 132.382812 776.949219 130.042969 776.964844 127.691406 C 758.707031 124.085938 739.859375 122.160156 720.539062 122.160156 C 657.304688 122.160156 598.847656 142.492188 551.199219 176.886719 C 552.566406 178.34375 553.863281 179.851562 555.136719 181.40625 " fill-opacity="1" fill-rule="nonzero"/><path fill="#01faff" d="M 517.539062 618.460938 C 555.8125 656.121094 604.410156 683.324219 658.808594 695.144531 C 659.28125 692.851562 659.859375 690.601562 660.632812 688.417969 C 607.414062 676.917969 559.882812 650.355469 522.453125 613.539062 L 517.539062 618.460938 " fill-opacity="1" fill-rule="nonzero"/><path fill="#01faff" d="M 504.601562 594.417969 C 481.355469 566.910156 463.25 534.9375 451.796875 499.921875 C 449.597656 500.695312 447.394531 501.433594 445.183594 502.140625 C 456.976562 538.183594 475.660156 571.105469 499.652344 599.367188 C 501.292969 597.714844 502.941406 596.066406 504.601562 594.417969 " fill-opacity="1" fill-rule="nonzero"/><path fill="#01faff" d="M 448.050781 314.152344 C 429.90625 364.695312 425.585938 420.238281 437.675781 474.605469 C 439.945312 474.074219 442.234375 473.652344 444.546875 473.4375 C 432.65625 420.285156 436.847656 365.984375 454.574219 316.554688 L 448.050781 314.152344 " fill-opacity="1" fill-rule="nonzero"/><path fill="#01faff" d="M 464.449219 292.328125 C 479.667969 259.691406 501.101562 229.828125 528.074219 204.765625 C 526.460938 203.09375 524.867188 201.40625 523.292969 199.6875 C 495.535156 225.507812 473.476562 256.269531 457.875 289.902344 C 460.074219 290.707031 462.265625 291.519531 464.449219 292.328125 " fill-opacity="1" fill-rule="nonzero"/><path fill="#01faff" d="M 760.769531 691.816406 C 732.296875 695.871094 703.570312 695.492188 675.542969 690.953125 C 674.941406 693.203125 674.339844 695.457031 673.835938 697.726562 C 702.980469 702.519531 732.898438 702.890625 762.542969 698.601562 C 761.949219 696.335938 761.363281 694.082031 760.769531 691.816406 " fill-opacity="1" fill-rule="nonzero"/><path fill="#01faff" d="M 1070.617188 229.203125 C 1066.542969 221.316406 1061.992188 213.207031 1057.105469 205.085938 L 1053.78125 199.566406 L 1048.292969 202.921875 L 1038.332031 208.84375 L 1041.675781 214.382812 C 1046.734375 222.746094 1050.984375 230.277344 1054.667969 237.4375 C 1082.699219 291.789062 1096.925781 350.441406 1096.925781 411.734375 C 1096.925781 458.867188 1088.320312 505.035156 1071.355469 548.925781 C 1065.660156 563.671875 1059.140625 577.894531 1052.015625 591.222656 C 1030.777344 630.890625 1002.867188 666.269531 969.066406 696.347656 C 968.226562 697.101562 967.339844 697.828125 966.460938 698.558594 C 965.65625 699.207031 964.859375 699.859375 964.085938 700.527344 L 959.492188 704.484375 L 963.191406 709.292969 C 963.933594 710.257812 970.5625 718.589844 970.5625 718.589844 L 975.617188 714.265625 L 977.746094 712.492188 C 978.835938 711.59375 979.929688 710.695312 980.992188 709.761719 C 1016.359375 678.277344 1045.578125 641.257812 1067.839844 599.6875 C 1075.363281 585.613281 1082.167969 570.71875 1088.082031 555.394531 C 1105.855469 509.410156 1114.859375 461.082031 1114.859375 411.734375 C 1114.859375 347.546875 1099.972656 286.136719 1070.617188 229.203125 " fill-opacity="1" fill-rule="nonzero"/><g clip-path="url(#b5719e89da)"><path fill="#01faff" d="M 697.453125 24.941406 L 696.59375 13.453125 L 690.257812 13.855469 C 481.246094 27.351562 317.507812 202.128906 317.507812 411.734375 L 317.59375 415.070312 C 317.644531 421.183594 317.875 427.765625 318.320312 435.1875 L 318.722656 441.984375 L 325.472656 441.171875 L 336.585938 439.703125 L 336.246094 433.757812 C 335.960938 429.007812 335.773438 424.976562 335.65625 421.3125 L 335.699219 421.3125 L 335.527344 414.851562 L 335.457031 408.527344 C 337.136719 209.765625 492.910156 44.589844 691.476562 31.78125 L 697.894531 31.371094 L 697.453125 24.941406 " fill-opacity="1" fill-rule="nonzero"/></g><path fill="#01faff" d="M 662.832031 762.457031 C 514.664062 738.457031 397.222656 622.824219 370.582031 475.480469 C 368.726562 475.832031 366.847656 476.113281 364.976562 476.40625 C 392.027344 626.238281 511.457031 743.824219 662.15625 768.128906 C 662.378906 766.242188 662.613281 764.355469 662.832031 762.457031 " fill-opacity="1" fill-rule="nonzero"/><path fill="#01faff" d="M 906.816406 713.964844 C 878.96875 731.230469 848.554688 744.773438 816.269531 753.84375 C 816.746094 755.691406 817.207031 757.535156 817.679688 759.378906 C 850.472656 750.171875 881.363281 736.433594 909.671875 718.910156 C 908.726562 717.253906 907.773438 715.613281 906.816406 713.964844 " fill-opacity="1" fill-rule="nonzero"/><path fill="#01faff" d="M 732.089844 56.894531 C 842.859375 60.613281 940.796875 114.957031 1003.375 197.664062 C 1004.972656 196.621094 1006.585938 195.59375 1008.207031 194.582031 C 944.542969 110.210938 844.730469 54.824219 731.804688 51.171875 C 731.917969 53.082031 731.992188 54.984375 732.089844 56.894531 " fill-opacity="1" fill-rule="nonzero"/><path fill="#01faff" d="M 408.820312 271.742188 C 413.1875 262.226562 417.976562 252.945312 423.152344 243.921875 C 417.679688 242.1875 412.160156 240.460938 406.519531 238.800781 L 406.371094 238.753906 C 400.914062 248.316406 395.867188 258.128906 391.273438 268.1875 L 394.824219 268.875 C 399.488281 269.769531 404.160156 270.765625 408.820312 271.742188 " fill-opacity="1" fill-rule="nonzero"/><path fill="#01faff" d="M 526.425781 111.914062 C 516.757812 118.15625 507.433594 124.820312 498.4375 131.910156 L 500.078125 133.246094 C 503.90625 136.359375 507.632812 139.5 511.355469 142.628906 C 519.871094 136.019531 528.703125 129.796875 537.839844 123.996094 C 534.085938 119.980469 530.300781 115.945312 526.425781 111.914062 " fill-opacity="1" fill-rule="nonzero"/><path fill="#01faff" d="M 491.746094 137.320312 C 482.371094 145.058594 473.414062 153.265625 464.867188 161.890625 L 466.808594 163.066406 C 470.988281 165.613281 475.125 168.242188 479.265625 170.851562 C 487.367188 162.78125 495.835938 155.074219 504.714844 147.835938 C 500.421875 144.300781 496.097656 140.773438 491.746094 137.320312 " fill-opacity="1" fill-rule="nonzero"/><path fill="#01faff" d="M 413.402344 232.714844 C 418.128906 234.148438 422.734375 235.605469 427.269531 237.066406 C 433.023438 227.558594 439.222656 218.355469 445.835938 209.464844 C 440.699219 207.15625 435.433594 204.824219 430.027344 202.5 C 423.042969 211.945312 416.5 221.71875 410.4375 231.820312 L 413.402344 232.714844 " fill-opacity="1" fill-rule="nonzero"/><path fill="#01faff" d="M 458.890625 167.933594 C 450.445312 176.847656 442.480469 186.1875 434.96875 195.902344 L 437.378906 196.960938 C 441.9375 198.964844 446.363281 200.964844 450.71875 202.96875 C 457.835938 193.855469 465.445312 185.144531 473.449219 176.777344 C 468.652344 173.816406 463.808594 170.851562 458.890625 167.933594 " fill-opacity="1" fill-rule="nonzero"/><path fill="#01faff" d="M 1057.769531 370.4375 C 1061.304688 369.421875 1064.957031 368.359375 1068.785156 367.226562 C 1067.96875 360.820312 1066.96875 354.359375 1065.804688 347.992188 C 1062.203125 349.464844 1058.648438 350.855469 1055.070312 352.277344 C 1056.117188 358.296875 1057.046875 364.34375 1057.769531 370.4375 " fill-opacity="1" fill-rule="nonzero"/><path fill="#01faff" d="M 1060.054688 406.105469 C 1063.703125 405.433594 1067.460938 404.726562 1071.425781 403.957031 C 1071.328125 398.160156 1071.128906 392.738281 1070.800781 387.5 C 1066.910156 388.636719 1063.203125 389.699219 1059.578125 390.722656 C 1059.878906 395.816406 1059.96875 400.960938 1060.054688 406.105469 " fill-opacity="1" fill-rule="nonzero"/><path fill="#01faff" d="M 1061.640625 327.996094 C 1059.84375 320.6875 1057.804688 313.371094 1055.542969 306.179688 C 1052.132812 308.035156 1048.785156 309.816406 1045.398438 311.628906 C 1047.488281 318.453125 1049.316406 325.34375 1050.96875 332.289062 C 1054.519531 330.863281 1058.050781 329.464844 1061.640625 327.996094 " fill-opacity="1" fill-rule="nonzero"/><path fill="#01faff" d="M 575.464844 88.074219 C 578.078125 91.804688 580.730469 95.671875 583.402344 99.613281 C 594.230469 94.839844 605.332031 90.558594 616.710938 86.90625 C 614.371094 82.1875 612.011719 77.476562 609.546875 72.71875 L 609.277344 72.195312 C 597.21875 76.1875 585.464844 80.804688 574.003906 85.984375 L 575.464844 88.074219 " fill-opacity="1" fill-rule="nonzero"/><path fill="#01faff" d="M 1058.628906 444.652344 C 1062.238281 444.363281 1065.980469 444.050781 1069.929688 443.703125 C 1070.535156 437.386719 1070.972656 430.914062 1071.246094 424.417969 C 1067.289062 425.160156 1063.523438 425.859375 1059.878906 426.511719 C 1059.617188 432.582031 1059.199219 438.625 1058.628906 444.652344 " fill-opacity="1" fill-rule="nonzero"/><path fill="#01faff" d="M 1027.714844 557.636719 C 1030.855469 558.492188 1034.097656 559.371094 1037.53125 560.277344 C 1040.1875 554.722656 1042.707031 549.023438 1045.078125 543.277344 C 1041.476562 542.738281 1037.996094 542.1875 1034.613281 541.648438 C 1032.425781 547.050781 1030.148438 552.402344 1027.714844 557.636719 " fill-opacity="1" fill-rule="nonzero"/><path fill="#01faff" d="M 1042.023438 522.070312 C 1045.371094 522.566406 1048.855469 523.074219 1052.503906 523.582031 C 1053.195312 521.699219 1053.855469 519.804688 1054.484375 517.882812 C 1055.855469 513.632812 1057.21875 509.117188 1058.574219 504.207031 C 1054.75 504.089844 1051.125 503.96875 1047.648438 503.832031 C 1045.949219 509.945312 1044.089844 516.035156 1042.023438 522.070312 " fill-opacity="1" fill-rule="nonzero"/><path fill="#01faff" d="M 1052.550781 483.675781 C 1056.082031 483.792969 1059.75 483.886719 1063.570312 483.96875 C 1064.96875 477.480469 1066.210938 470.839844 1067.257812 464.160156 C 1063.34375 464.488281 1059.617188 464.773438 1056.007812 465.023438 C 1055.019531 471.277344 1053.871094 477.492188 1052.550781 483.675781 " fill-opacity="1" fill-rule="nonzero"/><path fill="#01faff" d="M 1007.9375 593.984375 C 1010.789062 595.195312 1013.707031 596.425781 1016.734375 597.679688 C 1017.351562 596.703125 1017.988281 595.722656 1018.59375 594.738281 C 1021.785156 589.644531 1024.867188 584.398438 1027.789062 579.105469 C 1024.5 578.191406 1021.335938 577.296875 1018.25 576.417969 C 1014.992188 582.390625 1011.542969 588.222656 1007.9375 593.984375 " fill-opacity="1" fill-rule="nonzero"/><path fill="#01faff" d="M 983.015625 628.832031 C 985.484375 630.324219 987.988281 631.835938 990.605469 633.386719 C 995.480469 627.570312 1000.242188 621.488281 1004.777344 615.285156 C 1001.855469 614.03125 999.019531 612.800781 996.25 611.578125 C 992.03125 617.484375 987.589844 623.207031 983.015625 628.832031 " fill-opacity="1" fill-rule="nonzero"/><path fill="#01faff" d="M 533.742188 107.292969 L 535.277344 108.921875 C 538.53125 112.402344 541.742188 115.945312 544.964844 119.476562 C 554.890625 113.507812 565.164062 108.070312 575.703125 103.105469 C 572.535156 98.519531 569.359375 93.964844 566.183594 89.546875 C 555.035156 94.914062 544.226562 100.871094 533.742188 107.292969 " fill-opacity="1" fill-rule="nonzero"/><path fill="#01faff" d="M 394.320312 309.207031 C 397.667969 298.859375 401.472656 288.738281 405.742188 278.84375 C 400.101562 277.683594 394.4375 276.542969 388.867188 275.503906 L 388.128906 275.371094 C 383.613281 285.855469 379.582031 296.578125 376.042969 307.519531 L 380.085938 307.867188 C 384.753906 308.269531 389.5 308.726562 394.320312 309.207031 " fill-opacity="1" fill-rule="nonzero"/><path fill="#01faff" d="M 391.933594 316.535156 C 386.359375 315.996094 380.777344 315.460938 375.304688 315.027344 L 373.695312 314.890625 C 370.570312 325.339844 367.863281 335.949219 365.671875 346.746094 L 370.503906 346.675781 C 375.058594 346.601562 379.742188 346.570312 384.476562 346.570312 C 386.53125 336.398438 389.007812 326.367188 391.933594 316.535156 " fill-opacity="1" fill-rule="nonzero"/><path fill="#01faff" d="M 1067.355469 205.898438 C 1050.28125 176.632812 1029.585938 149.738281 1005.972656 125.742188 L 999.101562 132.613281 C 1022.199219 156.113281 1042.445312 182.433594 1059.136719 211.097656 C 1061.835938 209.304688 1064.589844 207.59375 1067.355469 205.898438 " fill-opacity="1" fill-rule="nonzero"/><g clip-path="url(#7f5b68454f)"><path fill="#01faff" d="M 1102.039062 283.371094 C 1099 284.457031 1095.957031 285.507812 1092.886719 286.519531 C 1105.554688 325.171875 1112.539062 366.402344 1112.539062 409.300781 C 1112.539062 599.523438 978.070312 758.296875 799.054688 795.792969 C 799.535156 798.996094 800.066406 802.210938 800.59375 805.410156 C 984.261719 767.183594 1122.257812 604.378906 1122.257812 409.300781 C 1122.257812 365.28125 1115.054688 323.007812 1102.039062 283.371094 " fill-opacity="1" fill-rule="nonzero"/></g><g clip-path="url(#83259dc871)"><path fill="#01faff" d="M 481.324219 81.078125 C 483.222656 83.109375 485.058594 85.207031 486.824219 87.386719 C 487.121094 87.746094 487.367188 88.140625 487.664062 88.5 C 552.453125 41.917969 631.875 14.394531 717.761719 14.394531 C 744.59375 14.394531 770.789062 17.09375 796.113281 22.199219 C 796.363281 18.941406 796.511719 15.667969 796.519531 12.390625 C 771.039062 7.367188 744.710938 4.664062 717.761719 4.664062 C 629.464844 4.664062 547.84375 33.054688 481.324219 81.078125 " fill-opacity="1" fill-rule="nonzero"/></g><path fill="#01faff" d="M 351.03125 238.863281 C 354.101562 239.992188 357.144531 241.113281 360.203125 242.238281 C 381.464844 196.679688 411.371094 154.992188 449.046875 119.988281 C 446.78125 117.664062 444.554688 115.300781 442.371094 112.910156 C 403.59375 148.960938 372.820312 191.910156 351.03125 238.863281 " fill-opacity="1" fill-rule="nonzero"/><path fill="#01faff" d="M 462.074219 725.003906 C 487.722656 746.210938 516.085938 764.210938 546.492188 778.597656 C 547.695312 775.617188 548.917969 772.648438 550.167969 769.6875 C 521.007812 755.84375 493.785156 738.582031 469.105469 718.300781 C 466.785156 720.554688 464.429688 722.773438 462.074219 725.003906 " fill-opacity="1" fill-rule="nonzero"/><path fill="#01faff" d="M 333.46875 540.445312 C 340.164062 560.933594 348.671875 580.566406 358.492188 599.410156 C 361.003906 597.285156 363.503906 595.121094 366.019531 592.96875 C 356.875 575.175781 348.933594 556.65625 342.625 537.382812 C 339.585938 538.445312 336.53125 539.472656 333.46875 540.445312 " fill-opacity="1" fill-rule="nonzero"/><path fill="#01faff" d="M 392.386719 653.601562 C 398.046875 660.855469 403.863281 668.003906 409.996094 674.847656 C 412.222656 672.496094 414.445312 670.152344 416.6875 667.796875 C 410.648438 661.027344 404.921875 653.972656 399.363281 646.789062 C 397.0625 649.082031 394.726562 651.34375 392.386719 653.601562 " fill-opacity="1" fill-rule="nonzero"/></svg>